<mxfile host="65bd71144e">
    <diagram id="d1ab7348-05c3-a1e3-ca4d-12c340fd6b49" name="Page-1">
        <mxGraphModel dx="1836" dy="1040" grid="1" gridSize="10" guides="1" tooltips="1" connect="1" arrows="1" fold="1" page="1" pageScale="1" pageWidth="1169" pageHeight="827" background="none" math="0" shadow="0">
            <root>
                <mxCell id="0"/>
                <mxCell id="1" parent="0"/>
                <mxCell id="397" value="WebAPI" style="edgeStyle=orthogonalEdgeStyle;rounded=0;html=1;dashed=0;labelBackgroundColor=none;startArrow=none;startFill=0;startSize=4;endArrow=blockThin;endFill=1;endSize=4;strokeColor=#4284F3;strokeWidth=2;fontSize=12;entryX=0;entryY=0.5;entryDx=0;entryDy=0;" parent="1" source="340" target="l2d_GAVntrcuHxAyZamE-432" edge="1">
                    <mxGeometry x="0.672" y="6" relative="1" as="geometry">
                        <Array as="points">
                            <mxPoint x="250" y="255"/>
                            <mxPoint x="250" y="340"/>
                            <mxPoint x="350" y="340"/>
                        </Array>
                        <mxPoint as="offset"/>
                    </mxGeometry>
                </mxCell>
                <mxCell id="2" value="&lt;b&gt;Google &lt;/b&gt;Cloud Platform" style="fillColor=#F6F6F6;strokeColor=none;shadow=0;gradientColor=none;fontSize=14;align=left;spacing=10;fontColor=#717171;9E9E9E;verticalAlign=top;spacingTop=-4;fontStyle=0;spacingLeft=40;html=1;" parent="1" vertex="1">
                    <mxGeometry x="260" y="150" width="880" height="550" as="geometry"/>
                </mxCell>
                <mxCell id="3" value="" style="shape=mxgraph.gcp2.google_cloud_platform;fillColor=#F6F6F6;strokeColor=none;shadow=0;gradientColor=none;" parent="2" vertex="1">
                    <mxGeometry width="23" height="20" relative="1" as="geometry">
                        <mxPoint x="20" y="10" as="offset"/>
                    </mxGeometry>
                </mxCell>
                <mxCell id="l2d_GAVntrcuHxAyZamE-438" value="" style="strokeColor=#dddddd;shadow=1;strokeWidth=1;rounded=1;absoluteArcSize=1;arcSize=2;" parent="2" vertex="1">
                    <mxGeometry x="293" y="84" width="140" height="60" as="geometry"/>
                </mxCell>
                <mxCell id="l2d_GAVntrcuHxAyZamE-439" value="&lt;font color=&quot;#000000&quot;&gt;Back-end DB&lt;br&gt;&lt;/font&gt;Cloud SQL" style="editableCssRules=.*;html=1;fontColor=#999999;shape=image;verticalLabelPosition=middle;labelBackgroundColor=#ffffff;verticalAlign=middle;labelPosition=right;align=left;spacingLeft=20;part=1;points=[];imageAspect=0;image=data:image/svg+xml,PHN2ZyB4bWxucz0iaHR0cDovL3d3dy53My5vcmcvMjAwMC9zdmciIHhtbG5zOnY9Imh0dHBzOi8vdmVjdGEuaW8vbmFubyIgd2lkdGg9IjE0LjY1OTk5OTg0NzQxMjExIiBoZWlnaHQ9IjIwIiB2aWV3Qm94PSIwIDAgMTQuNjU5OTk5ODQ3NDEyMTEgMjAiPiYjeGE7CTxzdHlsZSB0eXBlPSJ0ZXh0L2NzcyI+JiN4YTsJLnN0MHtmaWxsOiM0Mjg1ZjQ7fSYjeGE7CS5zdDF7ZmlsbDojNjY5ZGY2O30mI3hhOwkuc3Qye2ZpbGw6I2FlY2JmYTt9JiN4YTsJPC9zdHlsZT4mI3hhOwk8c3R5bGU+JiN4YTsJCS5Ee2ZpbGwtcnVsZTpldmVub2RkfSYjeGE7CTwvc3R5bGU+JiN4YTsJPHBhdGggZD0iTTcuMzMgMTUuMzV2LTMuMDFMMCA4LjQ0djMuMDF6bTAgNC42NXYtMy4wMUwwIDEzLjA5djMuMDF6IiBjbGFzcz0ic3QyIEQiLz4mI3hhOwk8cGF0aCBkPSJNMTQuNjYgOC40NGwtNy4zMyAzLjl2My4wMWw3LjMzLTMuOXptMCA0LjY1bC03LjMzIDMuOVYyMGw3LjMzLTMuOXoiIGNsYXNzPSJzdDEgRCIvPiYjeGE7CTxwYXRoIGQ9Ik03LjMzIDB2My4wMWw3LjMzIDMuOVYzLjl6IiBjbGFzcz0ic3QwIEQiLz4mI3hhOwk8cGF0aCBkPSJNMCA2LjkxbDcuMzMtMy45VjBMMCAzLjl6IiBjbGFzcz0iRCBzdDEiLz4mI3hhOwk8cGF0aCBkPSJNNy4zMyAxMC43OVY3Ljc3TDAgMy44N3YzLjAyeiIgY2xhc3M9IkQgc3QyIi8+JiN4YTsJPHBhdGggZD0iTTE0LjY2IDMuODdsLTcuMzMgMy45djMuMDJsNy4zMy0zLjl6IiBjbGFzcz0iRCBzdDEiLz4mI3hhOzwvc3ZnPg==;" parent="l2d_GAVntrcuHxAyZamE-438" vertex="1">
                    <mxGeometry width="22" height="30" relative="1" as="geometry">
                        <mxPoint x="19" y="15" as="offset"/>
                    </mxGeometry>
                </mxCell>
                <mxCell id="l2d_GAVntrcuHxAyZamE-443" value="" style="shape=mxgraph.gcp2.doubleRect;strokeColor=#dddddd;shadow=1;strokeWidth=1;rounded=1;absoluteArcSize=1;arcSize=2;" parent="2" vertex="1">
                    <mxGeometry x="415.75" y="160" width="138" height="68" as="geometry"/>
                </mxCell>
                <mxCell id="l2d_GAVntrcuHxAyZamE-444" value="&lt;font color=&quot;#000000&quot;&gt;Image reg&lt;br&gt;&lt;/font&gt;Cloud Run" style="editableCssRules=.*;html=1;fontColor=#999999;shape=image;verticalLabelPosition=middle;labelBackgroundColor=#ffffff;verticalAlign=middle;labelPosition=right;align=left;spacingLeft=20;part=1;points=[];imageAspect=0;image=data:image/svg+xml,PHN2ZyB4bWxucz0iaHR0cDovL3d3dy53My5vcmcvMjAwMC9zdmciIHhtbG5zOnY9Imh0dHBzOi8vdmVjdGEuaW8vbmFubyIgd2lkdGg9IjM2NS40NjQ5OTY3NzA0MjQ5MyIgaGVpZ2h0PSIzNzkuMjIyOTk0NDYzNTc3OTUiIHZpZXdCb3g9IjAgMCA5Ni42OTU5OTkxNDU1MDc4MSAxMDAuMzM1OTk4NTM1MTU2MjUiPiYjeGE7PHN0eWxlIHR5cGU9InRleHQvY3NzIj4mI3hhOwkuc3Qwe2ZpbGw6IzQyODVmNDt9JiN4YTsJLnN0MXtmaWxsOiNhZWNiZmE7fSYjeGE7PC9zdHlsZT4mI3hhOwk8cGF0aCBjbGFzcz0ic3QwIiBkPSJNMjkuNzk0IDEwMC4zMzZMNDYuOTIgNTAuMTY4aDQ5Ljc3NnpNMCA5OS42NzFsMTIuOTc2LTQ5LjUwMkgyOS4yMkwxNi44OTcgOTIuMDU0eiIvPiYjeGE7CTxwYXRoIGNsYXNzPSJzdDEiIGQ9Ik0yOS43OTQgMEw0Ni45MiA1MC4xNjhoNDkuNzc2ek0wIC42NjZsMTIuOTc2IDQ5LjUwMkgyOS4yMkwxNi44OTcgOC4yODN6Ii8+JiN4YTs8L3N2Zz4=;" parent="l2d_GAVntrcuHxAyZamE-443" vertex="1">
                    <mxGeometry width="30" height="30" relative="1" as="geometry">
                        <mxPoint x="15" y="15" as="offset"/>
                    </mxGeometry>
                </mxCell>
                <mxCell id="l2d_GAVntrcuHxAyZamE-454" value="" style="shape=mxgraph.gcp2.doubleRect;strokeColor=#dddddd;shadow=1;strokeWidth=1;rounded=1;absoluteArcSize=1;arcSize=2;" parent="2" vertex="1">
                    <mxGeometry x="416.25" y="254" width="138" height="68" as="geometry"/>
                </mxCell>
                <mxCell id="l2d_GAVntrcuHxAyZamE-455" value="&lt;font color=&quot;#000000&quot;&gt;Image Gen&lt;/font&gt;&lt;br&gt;Cloud Run" style="editableCssRules=.*;html=1;fontColor=#999999;shape=image;verticalLabelPosition=middle;labelBackgroundColor=#ffffff;verticalAlign=middle;labelPosition=right;align=left;spacingLeft=20;part=1;points=[];imageAspect=0;image=data:image/svg+xml,PHN2ZyB4bWxucz0iaHR0cDovL3d3dy53My5vcmcvMjAwMC9zdmciIHhtbG5zOnY9Imh0dHBzOi8vdmVjdGEuaW8vbmFubyIgd2lkdGg9IjM2NS40NjQ5OTY3NzA0MjQ5MyIgaGVpZ2h0PSIzNzkuMjIyOTk0NDYzNTc3OTUiIHZpZXdCb3g9IjAgMCA5Ni42OTU5OTkxNDU1MDc4MSAxMDAuMzM1OTk4NTM1MTU2MjUiPiYjeGE7PHN0eWxlIHR5cGU9InRleHQvY3NzIj4mI3hhOwkuc3Qwe2ZpbGw6IzQyODVmNDt9JiN4YTsJLnN0MXtmaWxsOiNhZWNiZmE7fSYjeGE7PC9zdHlsZT4mI3hhOwk8cGF0aCBjbGFzcz0ic3QwIiBkPSJNMjkuNzk0IDEwMC4zMzZMNDYuOTIgNTAuMTY4aDQ5Ljc3NnpNMCA5OS42NzFsMTIuOTc2LTQ5LjUwMkgyOS4yMkwxNi44OTcgOTIuMDU0eiIvPiYjeGE7CTxwYXRoIGNsYXNzPSJzdDEiIGQ9Ik0yOS43OTQgMEw0Ni45MiA1MC4xNjhoNDkuNzc2ek0wIC42NjZsMTIuOTc2IDQ5LjUwMkgyOS4yMkwxNi44OTcgOC4yODN6Ii8+JiN4YTs8L3N2Zz4=;" parent="l2d_GAVntrcuHxAyZamE-454" vertex="1">
                    <mxGeometry width="30" height="30" relative="1" as="geometry">
                        <mxPoint x="15" y="15" as="offset"/>
                    </mxGeometry>
                </mxCell>
                <mxCell id="l2d_GAVntrcuHxAyZamE-432" value="" style="strokeColor=#dddddd;shadow=1;strokeWidth=1;rounded=1;absoluteArcSize=1;arcSize=2;" parent="2" vertex="1">
                    <mxGeometry x="190" y="160" width="155" height="60" as="geometry"/>
                </mxCell>
                <mxCell id="l2d_GAVntrcuHxAyZamE-433" value="&lt;font color=&quot;#000000&quot;&gt;Back-end API&lt;br&gt;&lt;/font&gt;App Engine" style="editableCssRules=.*;html=1;fontColor=#999999;shape=image;verticalLabelPosition=middle;labelBackgroundColor=#ffffff;verticalAlign=middle;labelPosition=right;align=left;spacingLeft=20;part=1;points=[];imageAspect=0;image=data:image/svg+xml,PHN2ZyB4bWxucz0iaHR0cDovL3d3dy53My5vcmcvMjAwMC9zdmciIHhtbG5zOnY9Imh0dHBzOi8vdmVjdGEuaW8vbmFubyIgd2lkdGg9IjIwIiBoZWlnaHQ9IjE2LjAyMDAwMDQ1Nzc2MzY3MiIgZmlsbC1ydWxlPSJldmVub2RkIiB2aWV3Qm94PSI4Ljk0MDY5NjcxNjMwODU5NGUtOCAwIDIwIDE2LjAyMDAwMDQ1Nzc2MzY3MiI+JiN4YTsJPHN0eWxlIHR5cGU9InRleHQvY3NzIj4mI3hhOwkuc3Qwe2ZpbGw6IzQyODVmNDt9JiN4YTsJLnN0MXtmaWxsOiNhZWNiZmE7fSYjeGE7CS5zdDJ7ZmlsbDojNjY5ZGY2O30mI3hhOwk8L3N0eWxlPiYjeGE7CTxwYXRoIGNsYXNzPSJzdDAiIGQ9Ik0xMi4zIDcuMjZsLTEuMjIgMS4yMkExLjcxIDEuNzEgMCAwIDEgMTAgMTEuNDlhMS43NCAxLjc0IDAgMCAxLTEuMzMtLjY0bC0xLjIyIDEuMjJhMy40MyAzLjQzIDAgMCAwIDUuOTg0LTEuMzgxQTMuNDMgMy40MyAwIDAgMCAxMi4zIDcuMjZ6Ii8+JiN4YTsJPHBhdGggY2xhc3M9InN0MSIgZD0iTTEwIDMuNTJhNi4yNSA2LjI1IDAgMCAwIDAgMTIuNSA2LjI1IDYuMjUgMCAwIDAgMC0xMi41bTAgMTAuNzRhNC40NSA0LjQ1IDAgMCAxLTMuMTU3LTcuNTk3QTQuNDUgNC40NSAwIDAgMSAxNC40NCA5LjgyIDQuNDQgNC40NCAwIDAgMSAxMCAxNC4yNiIvPiYjeGE7CTxwYXRoIGNsYXNzPSJzdDIiIGQ9Ik0xOS42MiA5LjE2bC0yLjU2LS44MWE3LjEgNy4xIDAgMCAxIC4xNyAxLjUzIDcuNjIgNy42MiAwIDAgMS0uMDggMS4wOGgyLjQ3YS40NC40NCAwIDAgMCAuMzgtLjQydi0xYS40NC40NCAwIDAgMC0uMzgtLjQyTTEwIDIuNzhhNy40OCA3LjQ4IDAgMCAxIDEuNS4xNUwxMC41OC4zOGMtLjA3LS4yMi0uMjEtLjM4LS40Mi0uMzhoLS4zOGEuNDUuNDUgMCAwIDAtLjQyLjM4bC0uOCAyLjU0QTcuNjQgNy42NCAwIDAgMSAxMCAyLjc4bS03LjIzIDcuMWE3LjEgNy4xIDAgMCAxIC4xNy0xLjUzbC0yLjU2LjgxYS40NC40NCAwIDAgMC0uMzguNDJ2MWEuNDQuNDQgMCAwIDAgLjM4LjQyaDIuNDdhNy42MiA3LjYyIDAgMCAxLS4wOC0xLjA4Ii8+JiN4YTsJPHBhdGggY2xhc3M9InN0MSIgZD0iTTEwIDcuMjZhMi41IDIuNSAwIDEgMCAwIDUgMi41IDIuNSAwIDEgMCAwLTV6bTAgMy43NWExLjI1IDEuMjUgMCAxIDEgMC0yLjUgMS4yNSAxLjI1IDAgMCAxIDEuMjUgMS4yNUExLjI1IDEuMjUgMCAwIDEgMTAgMTEuMDJ6Ii8+JiN4YTs8L3N2Zz4=;" parent="l2d_GAVntrcuHxAyZamE-432" vertex="1">
                    <mxGeometry width="30" height="24" relative="1" as="geometry">
                        <mxPoint x="15" y="18" as="offset"/>
                    </mxGeometry>
                </mxCell>
                <mxCell id="l2d_GAVntrcuHxAyZamE-442" value="" style="edgeStyle=orthogonalEdgeStyle;fontSize=12;html=1;endArrow=blockThin;endFill=1;rounded=0;strokeWidth=2;endSize=4;startSize=4;dashed=0;strokeColor=#4284F3;exitX=0.5;exitY=0;exitDx=0;exitDy=0;entryX=0;entryY=0.5;entryDx=0;entryDy=0;startArrow=blockThin;startFill=1;" parent="2" source="l2d_GAVntrcuHxAyZamE-432" target="l2d_GAVntrcuHxAyZamE-438" edge="1">
                    <mxGeometry width="100" relative="1" as="geometry">
                        <mxPoint x="178.5" y="-390" as="sourcePoint"/>
                        <mxPoint x="278.5" y="-390" as="targetPoint"/>
                    </mxGeometry>
                </mxCell>
                <mxCell id="l2d_GAVntrcuHxAyZamE-459" value="Image" style="edgeStyle=orthogonalEdgeStyle;fontSize=12;html=1;endArrow=blockThin;endFill=1;rounded=0;strokeWidth=2;endSize=4;startSize=4;dashed=0;strokeColor=#4284F3;exitX=1;exitY=0.5;exitDx=0;exitDy=0;entryX=-0.005;entryY=0.45;entryDx=0;entryDy=0;entryPerimeter=0;" parent="2" source="l2d_GAVntrcuHxAyZamE-432" target="l2d_GAVntrcuHxAyZamE-443" edge="1">
                    <mxGeometry width="100" relative="1" as="geometry">
                        <mxPoint x="328.5" y="-320" as="sourcePoint"/>
                        <mxPoint x="428.5" y="-320" as="targetPoint"/>
                    </mxGeometry>
                </mxCell>
                <mxCell id="l2d_GAVntrcuHxAyZamE-486" value="" style="strokeColor=#dddddd;shadow=1;strokeWidth=1;rounded=1;absoluteArcSize=1;arcSize=2;" parent="2" vertex="1">
                    <mxGeometry x="217.5" y="319" width="100" height="60" as="geometry"/>
                </mxCell>
                <mxCell id="l2d_GAVntrcuHxAyZamE-487" value="FCM" style="sketch=0;dashed=0;connectable=0;html=1;fillColor=#5184F3;strokeColor=none;shape=mxgraph.gcp2.firebase;part=1;labelPosition=right;verticalLabelPosition=middle;align=left;verticalAlign=middle;spacingLeft=5;fontColor=#999999;fontSize=12;" parent="l2d_GAVntrcuHxAyZamE-486" vertex="1">
                    <mxGeometry width="32.4" height="45" relative="1" as="geometry">
                        <mxPoint x="5" y="7" as="offset"/>
                    </mxGeometry>
                </mxCell>
                <mxCell id="l2d_GAVntrcuHxAyZamE-488" value="Notification" style="edgeStyle=orthogonalEdgeStyle;fontSize=12;html=1;endArrow=blockThin;endFill=1;rounded=0;strokeWidth=2;endSize=4;startSize=4;dashed=0;strokeColor=#4284F3;exitX=0.5;exitY=1;exitDx=0;exitDy=0;entryX=0.5;entryY=0;entryDx=0;entryDy=0;" parent="2" source="l2d_GAVntrcuHxAyZamE-432" target="l2d_GAVntrcuHxAyZamE-486" edge="1">
                    <mxGeometry width="100" relative="1" as="geometry">
                        <mxPoint x="100" y="-240" as="sourcePoint"/>
                        <mxPoint x="200" y="-240" as="targetPoint"/>
                    </mxGeometry>
                </mxCell>
                <mxCell id="l2d_GAVntrcuHxAyZamE-508" value="" style="strokeColor=#dddddd;shadow=1;strokeWidth=1;rounded=1;absoluteArcSize=1;arcSize=2;" parent="2" vertex="1">
                    <mxGeometry x="217.5" y="454" width="100" height="60" as="geometry"/>
                </mxCell>
                <mxCell id="l2d_GAVntrcuHxAyZamE-509" value="Analytics" style="sketch=0;dashed=0;connectable=0;html=1;fillColor=#5184F3;strokeColor=none;shape=mxgraph.gcp2.firebase;part=1;labelPosition=right;verticalLabelPosition=middle;align=left;verticalAlign=middle;spacingLeft=5;fontColor=#999999;fontSize=12;" parent="l2d_GAVntrcuHxAyZamE-508" vertex="1">
                    <mxGeometry width="32.4" height="45" relative="1" as="geometry">
                        <mxPoint x="5" y="7" as="offset"/>
                    </mxGeometry>
                </mxCell>
                <mxCell id="l2d_GAVntrcuHxAyZamE-497" value="" style="strokeColor=#dddddd;shadow=1;strokeWidth=1;rounded=1;absoluteArcSize=1;arcSize=2;" parent="2" vertex="1">
                    <mxGeometry x="420" y="394" width="130" height="60" as="geometry"/>
                </mxCell>
                <mxCell id="l2d_GAVntrcuHxAyZamE-498" value="Monitoring" style="editableCssRules=.*;html=1;fontColor=#999999;shape=image;verticalLabelPosition=middle;labelBackgroundColor=#ffffff;verticalAlign=middle;labelPosition=right;align=left;spacingLeft=20;part=1;points=[];imageAspect=0;image=data:image/svg+xml,PHN2ZyB4bWxucz0iaHR0cDovL3d3dy53My5vcmcvMjAwMC9zdmciIHhtbG5zOnY9Imh0dHBzOi8vdmVjdGEuaW8vbmFubyIgd2lkdGg9IjIwIiBoZWlnaHQ9IjEzLjUyOTk5OTczMjk3MTE5MSIgdmlld0JveD0iLTIuOTMyMDk3ODk3ODEyMDE0ZS05IC01LjI1ODAxNTA0MTgzNzk1NmUtMTUgMjAgMTMuNTI5OTk5NzMyOTcxMTkxIj4mI3hhOwk8c3R5bGUgdHlwZT0idGV4dC9jc3MiPiYjeGE7CS5zdDB7ZmlsbDojNDI4NWY0O30mI3hhOwkuc3Qxe2ZpbGw6IzY2OWRmNjt9JiN4YTsJPC9zdHlsZT4mI3hhOwk8cGF0aCBjbGFzcz0ic3QxIiBkPSJNOC44MyAxMC41OGgyLjMzdjIuNjRIOC44M3oiLz4mI3hhOwk8cGF0aCBjbGFzcz0ic3QwIiBkPSJNMTYuNDggOC42MWEuNTYuNTYgMCAwIDEtLjQtLjE3TDEyIDQuMjEgOS4yNiA3LjFhLjU3LjU3IDAgMCAxLS43Ni4wNUw2LjQyIDUuNDdsLTIuMiAyLjkyYS41Ni41NiAwIDAgMS0uNDUuMjJIMHYxLjcxYS43NS43NSAwIDAgMCAuNzQuNzVoMTguNTJhLjc1Ljc1IDAgMCAwIC43NC0uNzVWOC42MXoiLz4mI3hhOwk8cGF0aCBjbGFzcz0ic3QxIiBkPSJNMy41IDcuNWwyLjM4LTMuMTZhLjU1LjU1IDAgMCAxIC4zNy0uMjIuNjMuNjMgMCAwIDEgLjQyLjEybDIuMTIgMS43MiAyLjgtMi45NGEuNTQuNTQgMCAwIDEgLjQtLjE3aDBhLjU0LjU0IDAgMCAxIC40LjE3bDQuMzMgNC40OEgyMFYuNzRhLjc0Ljc0IDAgMCAwLS43NC0uNzRILjc0QS43NC43NCAwIDAgMCAwIC43NHY2LjgxeiIvPiYjeGE7CTxyZWN0IGNsYXNzPSJzdDAiIHg9IjYuNjciIHk9IjEyLjkyIiB3aWR0aD0iNi42NyIgaGVpZ2h0PSIuNjEiIHJ4PSIuMyIvPiYjeGE7PC9zdmc+;" parent="l2d_GAVntrcuHxAyZamE-497" vertex="1">
                    <mxGeometry width="30" height="21" relative="1" as="geometry">
                        <mxPoint x="15" y="19" as="offset"/>
                    </mxGeometry>
                </mxCell>
                <mxCell id="l2d_GAVntrcuHxAyZamE-500" value="" style="edgeStyle=orthogonalEdgeStyle;fontSize=12;html=1;endArrow=blockThin;endFill=1;rounded=0;strokeWidth=2;endSize=4;startSize=4;dashed=0;strokeColor=#9E9E9E;entryX=0.5;entryY=0;entryDx=0;entryDy=0;exitX=0.5;exitY=1;exitDx=0;exitDy=0;" parent="2" source="l2d_GAVntrcuHxAyZamE-438" target="l2d_GAVntrcuHxAyZamE-497" edge="1">
                    <mxGeometry width="100" relative="1" as="geometry">
                        <mxPoint x="255" y="221" as="sourcePoint"/>
                        <mxPoint x="390" y="436" as="targetPoint"/>
                        <Array as="points">
                            <mxPoint x="363" y="350"/>
                            <mxPoint x="485" y="350"/>
                        </Array>
                    </mxGeometry>
                </mxCell>
                <mxCell id="l2d_GAVntrcuHxAyZamE-499" value="" style="edgeStyle=orthogonalEdgeStyle;fontSize=12;html=1;endArrow=blockThin;endFill=1;rounded=0;strokeWidth=2;endSize=4;startSize=4;dashed=0;strokeColor=#9E9E9E;entryX=0.5;entryY=0;entryDx=0;entryDy=0;exitX=1;exitY=0.75;exitDx=0;exitDy=0;" parent="2" source="l2d_GAVntrcuHxAyZamE-432" target="l2d_GAVntrcuHxAyZamE-497" edge="1">
                    <mxGeometry width="100" relative="1" as="geometry">
                        <mxPoint x="300" y="370" as="sourcePoint"/>
                        <mxPoint x="400" y="370" as="targetPoint"/>
                        <Array as="points">
                            <mxPoint x="390" y="205"/>
                            <mxPoint x="390" y="350"/>
                            <mxPoint x="485" y="350"/>
                        </Array>
                    </mxGeometry>
                </mxCell>
                <mxCell id="l2d_GAVntrcuHxAyZamE-502" value="" style="edgeStyle=orthogonalEdgeStyle;fontSize=12;html=1;endArrow=blockThin;endFill=1;rounded=0;strokeWidth=2;endSize=4;startSize=4;dashed=0;strokeColor=#9E9E9E;exitX=1.022;exitY=0.772;exitDx=0;exitDy=0;exitPerimeter=0;entryX=0.5;entryY=0;entryDx=0;entryDy=0;" parent="2" source="l2d_GAVntrcuHxAyZamE-443" target="l2d_GAVntrcuHxAyZamE-497" edge="1">
                    <mxGeometry width="100" relative="1" as="geometry">
                        <mxPoint x="450" y="350" as="sourcePoint"/>
                        <mxPoint x="490" y="370" as="targetPoint"/>
                        <Array as="points">
                            <mxPoint x="590" y="213"/>
                            <mxPoint x="590" y="350"/>
                            <mxPoint x="485" y="350"/>
                        </Array>
                    </mxGeometry>
                </mxCell>
                <mxCell id="l2d_GAVntrcuHxAyZamE-503" value="" style="edgeStyle=orthogonalEdgeStyle;fontSize=12;html=1;endArrow=blockThin;endFill=1;rounded=0;strokeWidth=2;endSize=4;startSize=4;dashed=0;strokeColor=#9E9E9E;exitX=0.5;exitY=1;exitDx=0;exitDy=0;entryX=0.5;entryY=0;entryDx=0;entryDy=0;" parent="2" source="l2d_GAVntrcuHxAyZamE-454" target="l2d_GAVntrcuHxAyZamE-497" edge="1">
                    <mxGeometry width="100" relative="1" as="geometry">
                        <mxPoint x="490" y="380" as="sourcePoint"/>
                        <mxPoint x="590" y="380" as="targetPoint"/>
                        <Array as="points">
                            <mxPoint x="486" y="328"/>
                            <mxPoint x="485" y="328"/>
                        </Array>
                    </mxGeometry>
                </mxCell>
                <mxCell id="l2d_GAVntrcuHxAyZamE-511" value="" style="strokeColor=#dddddd;shadow=1;strokeWidth=1;rounded=1;absoluteArcSize=1;arcSize=2;" parent="2" vertex="1">
                    <mxGeometry x="580" y="454" width="130" height="60" as="geometry"/>
                </mxCell>
                <mxCell id="l2d_GAVntrcuHxAyZamE-512" value="&lt;font style=&quot;border-color: var(--border-color);&quot; color=&quot;#000000&quot;&gt;Grafana&lt;/font&gt;&lt;br style=&quot;border-color: var(--border-color);&quot;&gt;Cloud Run" style="editableCssRules=.*;html=1;fontColor=#999999;shape=image;verticalLabelPosition=middle;labelBackgroundColor=#ffffff;verticalAlign=middle;labelPosition=right;align=left;spacingLeft=20;part=1;points=[];imageAspect=0;image=data:image/svg+xml,PHN2ZyB4bWxucz0iaHR0cDovL3d3dy53My5vcmcvMjAwMC9zdmciIHhtbG5zOnY9Imh0dHBzOi8vdmVjdGEuaW8vbmFubyIgd2lkdGg9IjM2NS40NjQ5OTY3NzA0MjQ5MyIgaGVpZ2h0PSIzNzkuMjIyOTk0NDYzNTc3OTUiIHZpZXdCb3g9IjAgMCA5Ni42OTU5OTkxNDU1MDc4MSAxMDAuMzM1OTk4NTM1MTU2MjUiPiYjeGE7PHN0eWxlIHR5cGU9InRleHQvY3NzIj4mI3hhOwkuc3Qwe2ZpbGw6IzQyODVmNDt9JiN4YTsJLnN0MXtmaWxsOiNhZWNiZmE7fSYjeGE7PC9zdHlsZT4mI3hhOwk8cGF0aCBjbGFzcz0ic3QwIiBkPSJNMjkuNzk0IDEwMC4zMzZMNDYuOTIgNTAuMTY4aDQ5Ljc3NnpNMCA5OS42NzFsMTIuOTc2LTQ5LjUwMkgyOS4yMkwxNi44OTcgOTIuMDU0eiIvPiYjeGE7CTxwYXRoIGNsYXNzPSJzdDEiIGQ9Ik0yOS43OTQgMEw0Ni45MiA1MC4xNjhoNDkuNzc2ek0wIC42NjZsMTIuOTc2IDQ5LjUwMkgyOS4yMkwxNi44OTcgOC4yODN6Ii8+JiN4YTs8L3N2Zz4=;" parent="l2d_GAVntrcuHxAyZamE-511" vertex="1">
                    <mxGeometry width="30" height="30" relative="1" as="geometry">
                        <mxPoint x="15" y="15" as="offset"/>
                    </mxGeometry>
                </mxCell>
                <mxCell id="l2d_GAVntrcuHxAyZamE-515" value="" style="edgeStyle=orthogonalEdgeStyle;fontSize=12;html=1;endArrow=blockThin;endFill=1;rounded=0;strokeWidth=2;endSize=4;startSize=4;dashed=0;strokeColor=#4284F3;exitX=1;exitY=0.5;exitDx=0;exitDy=0;entryX=0;entryY=0.5;entryDx=0;entryDy=0;" parent="2" source="l2d_GAVntrcuHxAyZamE-508" target="l2d_GAVntrcuHxAyZamE-511" edge="1">
                    <mxGeometry width="100" relative="1" as="geometry">
                        <mxPoint x="288.5" y="-30.25" as="sourcePoint"/>
                        <mxPoint x="388.5" y="-30.25" as="targetPoint"/>
                    </mxGeometry>
                </mxCell>
                <mxCell id="l2d_GAVntrcuHxAyZamE-516" value="" style="strokeColor=#dddddd;shadow=1;strokeWidth=1;rounded=1;absoluteArcSize=1;arcSize=2;" parent="2" vertex="1">
                    <mxGeometry x="758.5" y="454" width="100" height="60" as="geometry"/>
                </mxCell>
                <mxCell id="l2d_GAVntrcuHxAyZamE-517" value="Cloud&#10;SQL" style="editableCssRules=.*;html=1;fontColor=#999999;shape=image;verticalLabelPosition=middle;labelBackgroundColor=#ffffff;verticalAlign=middle;labelPosition=right;align=left;spacingLeft=20;part=1;points=[];imageAspect=0;image=data:image/svg+xml,PHN2ZyB4bWxucz0iaHR0cDovL3d3dy53My5vcmcvMjAwMC9zdmciIHhtbG5zOnY9Imh0dHBzOi8vdmVjdGEuaW8vbmFubyIgd2lkdGg9IjE0LjY1OTk5OTg0NzQxMjExIiBoZWlnaHQ9IjIwIiB2aWV3Qm94PSIwIDAgMTQuNjU5OTk5ODQ3NDEyMTEgMjAiPiYjeGE7CTxzdHlsZSB0eXBlPSJ0ZXh0L2NzcyI+JiN4YTsJLnN0MHtmaWxsOiM0Mjg1ZjQ7fSYjeGE7CS5zdDF7ZmlsbDojNjY5ZGY2O30mI3hhOwkuc3Qye2ZpbGw6I2FlY2JmYTt9JiN4YTsJPC9zdHlsZT4mI3hhOwk8c3R5bGU+JiN4YTsJCS5Ee2ZpbGwtcnVsZTpldmVub2RkfSYjeGE7CTwvc3R5bGU+JiN4YTsJPHBhdGggZD0iTTcuMzMgMTUuMzV2LTMuMDFMMCA4LjQ0djMuMDF6bTAgNC42NXYtMy4wMUwwIDEzLjA5djMuMDF6IiBjbGFzcz0ic3QyIEQiLz4mI3hhOwk8cGF0aCBkPSJNMTQuNjYgOC40NGwtNy4zMyAzLjl2My4wMWw3LjMzLTMuOXptMCA0LjY1bC03LjMzIDMuOVYyMGw3LjMzLTMuOXoiIGNsYXNzPSJzdDEgRCIvPiYjeGE7CTxwYXRoIGQ9Ik03LjMzIDB2My4wMWw3LjMzIDMuOVYzLjl6IiBjbGFzcz0ic3QwIEQiLz4mI3hhOwk8cGF0aCBkPSJNMCA2LjkxbDcuMzMtMy45VjBMMCAzLjl6IiBjbGFzcz0iRCBzdDEiLz4mI3hhOwk8cGF0aCBkPSJNNy4zMyAxMC43OVY3Ljc3TDAgMy44N3YzLjAyeiIgY2xhc3M9IkQgc3QyIi8+JiN4YTsJPHBhdGggZD0iTTE0LjY2IDMuODdsLTcuMzMgMy45djMuMDJsNy4zMy0zLjl6IiBjbGFzcz0iRCBzdDEiLz4mI3hhOzwvc3ZnPg==;" parent="l2d_GAVntrcuHxAyZamE-516" vertex="1">
                    <mxGeometry width="22" height="30" relative="1" as="geometry">
                        <mxPoint x="19" y="15" as="offset"/>
                    </mxGeometry>
                </mxCell>
                <mxCell id="l2d_GAVntrcuHxAyZamE-462" value="" style="strokeColor=#dddddd;shadow=1;strokeWidth=1;rounded=1;absoluteArcSize=1;arcSize=2;" parent="2" vertex="1">
                    <mxGeometry x="638.5" y="164" width="160" height="60" as="geometry"/>
                </mxCell>
                <mxCell id="l2d_GAVntrcuHxAyZamE-463" value="&lt;font color=&quot;#000000&quot;&gt;Images Storage&lt;/font&gt;&lt;br&gt;Cloud Storage" style="editableCssRules=.*;html=1;fontColor=#999999;shape=image;verticalLabelPosition=middle;labelBackgroundColor=#ffffff;verticalAlign=middle;labelPosition=right;align=left;spacingLeft=20;part=1;points=[];imageAspect=0;image=data:image/svg+xml,PHN2ZyB4bWxucz0iaHR0cDovL3d3dy53My5vcmcvMjAwMC9zdmciIHhtbG5zOnY9Imh0dHBzOi8vdmVjdGEuaW8vbmFubyIgd2lkdGg9IjIwIiBoZWlnaHQ9IjE2IiB2aWV3Qm94PSIwIDAgMjAgMTYiPiYjeGE7CTxzdHlsZSB0eXBlPSJ0ZXh0L2NzcyI+JiN4YTsJLnN0MHtmaWxsOiM0Mjg1ZjQ7fSYjeGE7CS5zdDF7ZmlsbDojNjY5ZGY2O30mI3hhOwkuc3Qye2ZpbGw6I2FlY2JmYTt9JiN4YTsJLnN0M3tmaWxsOiNmZmY7fSYjeGE7CTwvc3R5bGU+JiN4YTsJPHBhdGggY2xhc3M9InN0MiIgZD0iTTAgMGgyMHY3SDB6Ii8+JiN4YTsJPHBhdGggY2xhc3M9InN0MSIgZD0iTTE4IDBoMnY3aC0yeiIvPiYjeGE7CTxwYXRoIGNsYXNzPSJzdDAiIGQ9Ik0xOCA3bDItN2gtMnoiLz4mI3hhOwk8cGF0aCBjbGFzcz0ic3QxIiBkPSJNMCAwaDJ2N0gweiIvPiYjeGE7CTxnIGNsYXNzPSJzdDMiPiYjeGE7CQk8cGF0aCBkPSJNNCAzaDZ2MUg0eiIvPiYjeGE7CQk8cmVjdCB4PSIxMyIgeT0iMiIgd2lkdGg9IjMiIGhlaWdodD0iMyIgcng9IjEuNSIvPiYjeGE7CTwvZz4mI3hhOwk8cGF0aCBjbGFzcz0ic3QyIiBkPSJNMCA5aDIwdjdIMHoiLz4mI3hhOwk8cGF0aCBjbGFzcz0ic3QxIiBkPSJNMTggOWgydjdoLTJ6Ii8+JiN4YTsJPHBhdGggY2xhc3M9InN0MCIgZD0iTTE4IDE2bDItN2gtMnoiLz4mI3hhOwk8cGF0aCBjbGFzcz0ic3QxIiBkPSJNMCA5aDJ2N0gweiIvPiYjeGE7CTxnIGNsYXNzPSJzdDMiPiYjeGE7CQk8cGF0aCBkPSJNNCAxMmg2djFINHoiLz4mI3hhOwkJPHJlY3QgeD0iMTMiIHk9IjExIiB3aWR0aD0iMyIgaGVpZ2h0PSIzIiByeD0iMS41Ii8+JiN4YTsJPC9nPiYjeGE7PC9zdmc+;" parent="l2d_GAVntrcuHxAyZamE-462" vertex="1">
                    <mxGeometry width="30" height="24" relative="1" as="geometry">
                        <mxPoint x="15" y="18" as="offset"/>
                    </mxGeometry>
                </mxCell>
                <mxCell id="l2d_GAVntrcuHxAyZamE-514" value="" style="edgeStyle=orthogonalEdgeStyle;fontSize=12;html=1;endArrow=blockThin;endFill=1;rounded=0;strokeWidth=2;endSize=4;startSize=4;dashed=0;strokeColor=#4284F3;exitX=1;exitY=0.5;exitDx=0;exitDy=0;entryX=0.5;entryY=0;entryDx=0;entryDy=0;" parent="2" source="l2d_GAVntrcuHxAyZamE-497" target="l2d_GAVntrcuHxAyZamE-511" edge="1">
                    <mxGeometry width="100" relative="1" as="geometry">
                        <mxPoint x="440" y="-40" as="sourcePoint"/>
                        <mxPoint x="540" y="-40" as="targetPoint"/>
                    </mxGeometry>
                </mxCell>
                <mxCell id="l2d_GAVntrcuHxAyZamE-518" value="" style="edgeStyle=orthogonalEdgeStyle;fontSize=12;html=1;endArrow=blockThin;endFill=1;rounded=0;strokeWidth=2;endSize=4;startSize=4;dashed=0;strokeColor=#4284F3;exitX=1;exitY=0.5;exitDx=0;exitDy=0;entryX=0;entryY=0.5;entryDx=0;entryDy=0;startArrow=blockThin;startFill=1;" parent="2" source="l2d_GAVntrcuHxAyZamE-511" target="l2d_GAVntrcuHxAyZamE-516" edge="1">
                    <mxGeometry width="100" relative="1" as="geometry">
                        <mxPoint x="520" y="-40" as="sourcePoint"/>
                        <mxPoint x="620" y="-40" as="targetPoint"/>
                    </mxGeometry>
                </mxCell>
                <mxCell id="l2d_GAVntrcuHxAyZamE-504" value="" style="edgeStyle=orthogonalEdgeStyle;fontSize=12;html=1;endArrow=blockThin;endFill=1;rounded=0;strokeWidth=2;endSize=4;startSize=4;dashed=0;strokeColor=#9E9E9E;exitX=0;exitY=0.808;exitDx=0;exitDy=0;entryX=0.5;entryY=0;entryDx=0;entryDy=0;exitPerimeter=0;" parent="2" source="l2d_GAVntrcuHxAyZamE-462" target="l2d_GAVntrcuHxAyZamE-497" edge="1">
                    <mxGeometry width="100" relative="1" as="geometry">
                        <mxPoint x="460" y="270" as="sourcePoint"/>
                        <mxPoint x="480" y="350" as="targetPoint"/>
                        <Array as="points">
                            <mxPoint x="590" y="213"/>
                            <mxPoint x="590" y="350"/>
                            <mxPoint x="485" y="350"/>
                        </Array>
                    </mxGeometry>
                </mxCell>
                <mxCell id="l2d_GAVntrcuHxAyZamE-464" value="Images" style="edgeStyle=orthogonalEdgeStyle;fontSize=12;html=1;endArrow=blockThin;endFill=1;rounded=0;strokeWidth=2;endSize=4;startSize=4;dashed=0;strokeColor=#4284F3;exitX=1;exitY=0.5;exitDx=0;exitDy=0;entryX=0;entryY=0.5;entryDx=0;entryDy=0;" parent="2" source="l2d_GAVntrcuHxAyZamE-443" target="l2d_GAVntrcuHxAyZamE-462" edge="1">
                    <mxGeometry width="100" relative="1" as="geometry">
                        <mxPoint x="528.5" y="-320.34000000000003" as="sourcePoint"/>
                        <mxPoint x="578.5" y="-320" as="targetPoint"/>
                    </mxGeometry>
                </mxCell>
                <mxCell id="l2d_GAVntrcuHxAyZamE-492" value="" style="edgeStyle=orthogonalEdgeStyle;fontSize=12;html=1;endArrow=blockThin;endFill=1;rounded=0;strokeWidth=2;endSize=4;startSize=4;dashed=0;strokeColor=#4284F3;entryX=0.999;entryY=0.606;entryDx=0;entryDy=0;exitX=0.428;exitY=1.007;exitDx=0;exitDy=0;exitPerimeter=0;entryPerimeter=0;startArrow=blockThin;startFill=1;" parent="2" source="l2d_GAVntrcuHxAyZamE-462" target="l2d_GAVntrcuHxAyZamE-454" edge="1">
                    <mxGeometry width="100" relative="1" as="geometry">
                        <mxPoint x="670" y="-289" as="sourcePoint"/>
                        <mxPoint x="730" y="-270" as="targetPoint"/>
                    </mxGeometry>
                </mxCell>
                <mxCell id="415" value="" style="strokeColor=#dddddd;shadow=1;strokeWidth=1;rounded=1;absoluteArcSize=1;arcSize=2;" parent="2" vertex="1">
                    <mxGeometry x="20" y="160" width="110" height="60" as="geometry"/>
                </mxCell>
                <mxCell id="416" value="Cloud&#10;Armor" style="editableCssRules=.*;fontColor=#999999;shape=image;verticalLabelPosition=middle;labelBackgroundColor=#ffffff;verticalAlign=middle;labelPosition=right;align=left;spacingLeft=20;part=1;points=[];imageAspect=0;image=data:image/svg+xml,PHN2ZyB4bWxucz0iaHR0cDovL3d3dy53My5vcmcvMjAwMC9zdmciIHhtbG5zOnY9Imh0dHBzOi8vdmVjdGEuaW8vbmFubyIgd2lkdGg9IjE2LjUwMDQzNDg3NTQ4ODI4IiBoZWlnaHQ9IjIwIiB2aWV3Qm94PSItMC4wMDAzNjMwODkyNjA2NDUyMTA3NCAxLjE5MjA5Mjg5NTUwNzgxMjVlLTcgMTYuNTAwNDM0ODc1NDg4MjggMjAiPiYjeGE7CTxzdHlsZSB0eXBlPSJ0ZXh0L2NzcyI+JiN4YTsJLnN0MHtmaWxsOiM2NjlkZjY7fSYjeGE7CS5zdDF7ZmlsbDojYWVjYmZhO30mI3hhOwk8L3N0eWxlPiYjeGE7CTxwYXRoIGNsYXNzPSJzdDEiIGQ9Ik0xMC40MiAxMi4wN2wxLjA0IDEuMDUtNS40NSA1LjQ4LTEuMDQtMS4wNXptLS44My00LjE5bDEuMDQgMS4wNS03LjM1IDcuMzktMS4wNC0xLjA1em0tNC4xNi0uODVsMS4wNCAxLjA1LTQuODggNC45LTEuMDQtMS4wNXoiLz4mI3hhOwk8ZyBjbGFzcz0ic3QwIj4mI3hhOwkJPHBhdGggZD0iTTguMjUgMS42MWw2Ljc4IDN2NC41NWE5LjcxIDkuNzEgMCAwIDEtNi43OCA5LjMyIDkuNyA5LjcgMCAwIDEtNi43OC05LjMxVjQuNjNsNi43OC0zbTAtMS42M0wwIDMuNjh2NS40OUExMS4xNyAxMS4xNyAwIDAgMCA4LjEgMjBoLjE1LjE1YTExLjE3IDExLjE3IDAgMCAwIDguMS0xMC43OFYzLjY4eiIvPiYjeGE7CQk8Y2lyY2xlIGN4PSIxMC45NCIgY3k9IjEyLjYyIiByPSIxLjQyIi8+JiN4YTsJCTxjaXJjbGUgY3g9IjEwLjEiIGN5PSI4LjQ1IiByPSIxLjQyIi8+JiN4YTsJCTxjaXJjbGUgY3g9IjUuOTQiIGN5PSI3LjYiIHI9IjEuNDIiLz4mI3hhOwk8L2c+JiN4YTs8L3N2Zz4=;" parent="415" vertex="1">
                    <mxGeometry width="26" height="30" relative="1" as="geometry">
                        <mxPoint x="17" y="15" as="offset"/>
                    </mxGeometry>
                </mxCell>
                <mxCell id="402" value="" style="edgeStyle=orthogonalEdgeStyle;rounded=0;html=1;dashed=0;labelBackgroundColor=none;startArrow=none;startFill=0;startSize=4;endArrow=blockThin;endFill=1;endSize=4;strokeColor=#4284F3;strokeWidth=2;fontSize=12;exitX=1;exitY=0.5;exitDx=0;exitDy=0;" parent="2" source="415" edge="1">
                    <mxGeometry relative="1" as="geometry">
                        <Array as="points">
                            <mxPoint x="160" y="190"/>
                            <mxPoint x="160" y="60"/>
                            <mxPoint x="670" y="60"/>
                            <mxPoint x="670" y="161"/>
                        </Array>
                        <mxPoint x="-40" y="70" as="sourcePoint"/>
                        <mxPoint x="670" y="161" as="targetPoint"/>
                    </mxGeometry>
                </mxCell>
                <mxCell id="420" value="" style="edgeStyle=orthogonalEdgeStyle;rounded=0;html=1;dashed=0;labelBackgroundColor=none;startArrow=none;startFill=0;startSize=4;endArrow=blockThin;endFill=1;endSize=4;strokeColor=#4284F3;strokeWidth=2;fontSize=12;entryX=0;entryY=0.5;entryDx=0;entryDy=0;exitX=1;exitY=0.5;exitDx=0;exitDy=0;" parent="2" source="415" target="l2d_GAVntrcuHxAyZamE-432" edge="1">
                    <mxGeometry relative="1" as="geometry">
                        <mxPoint x="160" y="259" as="sourcePoint"/>
                        <mxPoint x="739.5399999999997" y="233" as="targetPoint"/>
                    </mxGeometry>
                </mxCell>
                <mxCell id="l2d_GAVntrcuHxAyZamE-473" value="Image Gen Req" style="edgeStyle=orthogonalEdgeStyle;fontSize=12;html=1;endArrow=blockThin;endFill=1;rounded=0;strokeWidth=2;endSize=4;startSize=4;dashed=0;strokeColor=#4284F3;exitX=0.842;exitY=1.002;exitDx=0;exitDy=0;entryX=0;entryY=0.5;entryDx=0;entryDy=0;exitPerimeter=0;" parent="2" source="l2d_GAVntrcuHxAyZamE-432" target="l2d_GAVntrcuHxAyZamE-454" edge="1">
                    <mxGeometry width="100" relative="1" as="geometry">
                        <mxPoint x="268.5" y="-240" as="sourcePoint"/>
                        <mxPoint x="392.5" y="-220" as="targetPoint"/>
                    </mxGeometry>
                </mxCell>
                <mxCell id="421" value="" style="strokeColor=#dddddd;shadow=1;strokeWidth=1;rounded=1;absoluteArcSize=1;arcSize=2;" parent="2" vertex="1">
                    <mxGeometry x="508.5" y="84" width="130" height="60" as="geometry"/>
                </mxCell>
                <mxCell id="422" value="&lt;font style=&quot;border-color: var(--border-color);&quot; color=&quot;#000000&quot;&gt;Grafana&lt;/font&gt;&lt;br style=&quot;border-color: var(--border-color);&quot;&gt;Cloud Run" style="editableCssRules=.*;html=1;fontColor=#999999;shape=image;verticalLabelPosition=middle;labelBackgroundColor=#ffffff;verticalAlign=middle;labelPosition=right;align=left;spacingLeft=20;part=1;points=[];imageAspect=0;image=data:image/svg+xml,PHN2ZyB4bWxucz0iaHR0cDovL3d3dy53My5vcmcvMjAwMC9zdmciIHhtbG5zOnY9Imh0dHBzOi8vdmVjdGEuaW8vbmFubyIgd2lkdGg9IjM2NS40NjQ5OTY3NzA0MjQ5MyIgaGVpZ2h0PSIzNzkuMjIyOTk0NDYzNTc3OTUiIHZpZXdCb3g9IjAgMCA5Ni42OTU5OTkxNDU1MDc4MSAxMDAuMzM1OTk4NTM1MTU2MjUiPiYjeGE7PHN0eWxlIHR5cGU9InRleHQvY3NzIj4mI3hhOwkuc3Qwe2ZpbGw6IzQyODVmNDt9JiN4YTsJLnN0MXtmaWxsOiNhZWNiZmE7fSYjeGE7PC9zdHlsZT4mI3hhOwk8cGF0aCBjbGFzcz0ic3QwIiBkPSJNMjkuNzk0IDEwMC4zMzZMNDYuOTIgNTAuMTY4aDQ5Ljc3NnpNMCA5OS42NzFsMTIuOTc2LTQ5LjUwMkgyOS4yMkwxNi44OTcgOTIuMDU0eiIvPiYjeGE7CTxwYXRoIGNsYXNzPSJzdDEiIGQ9Ik0yOS43OTQgMEw0Ni45MiA1MC4xNjhoNDkuNzc2ek0wIC42NjZsMTIuOTc2IDQ5LjUwMkgyOS4yMkwxNi44OTcgOC4yODN6Ii8+JiN4YTs8L3N2Zz4=;" parent="421" vertex="1">
                    <mxGeometry width="30" height="30" relative="1" as="geometry">
                        <mxPoint x="15" y="15" as="offset"/>
                    </mxGeometry>
                </mxCell>
                <mxCell id="424" value="" style="edgeStyle=orthogonalEdgeStyle;fontSize=12;html=1;endArrow=blockThin;endFill=1;rounded=0;strokeWidth=2;endSize=4;startSize=4;dashed=0;strokeColor=#4284F3;exitX=1;exitY=0.5;exitDx=0;exitDy=0;entryX=0.5;entryY=0;entryDx=0;entryDy=0;startArrow=blockThin;startFill=1;" parent="2" source="421" target="l2d_GAVntrcuHxAyZamE-516" edge="1">
                    <mxGeometry width="100" relative="1" as="geometry">
                        <mxPoint x="980" y="644" as="sourcePoint"/>
                        <mxPoint x="1028.5" y="644" as="targetPoint"/>
                    </mxGeometry>
                </mxCell>
                <mxCell id="426" value="metrics" style="edgeStyle=orthogonalEdgeStyle;fontSize=12;html=1;endArrow=blockThin;endFill=1;rounded=0;strokeWidth=2;endSize=4;startSize=4;dashed=0;strokeColor=#4284F3;exitX=0;exitY=0.5;exitDx=0;exitDy=0;entryX=1;entryY=0.5;entryDx=0;entryDy=0;startArrow=blockThin;startFill=1;" parent="2" source="421" target="l2d_GAVntrcuHxAyZamE-438" edge="1">
                    <mxGeometry width="100" relative="1" as="geometry">
                        <mxPoint x="908.5" y="274" as="sourcePoint"/>
                        <mxPoint x="1078.5" y="614" as="targetPoint"/>
                    </mxGeometry>
                </mxCell>
                <mxCell id="429" value="" style="edgeStyle=orthogonalEdgeStyle;rounded=0;html=1;dashed=0;labelBackgroundColor=none;startArrow=none;startFill=0;startSize=4;endArrow=blockThin;endFill=1;endSize=4;strokeColor=#4284F3;strokeWidth=2;fontSize=12;entryX=0.5;entryY=0;entryDx=0;entryDy=0;exitX=1;exitY=0.5;exitDx=0;exitDy=0;" parent="2" source="415" target="421" edge="1">
                    <mxGeometry relative="1" as="geometry">
                        <Array as="points">
                            <mxPoint x="160" y="190"/>
                            <mxPoint x="160" y="60"/>
                            <mxPoint x="574" y="60"/>
                        </Array>
                        <mxPoint x="400" y="350" as="sourcePoint"/>
                        <mxPoint x="979.5400000000002" y="324" as="targetPoint"/>
                    </mxGeometry>
                </mxCell>
                <mxCell id="431" value="" style="strokeColor=#dddddd;shadow=1;strokeWidth=1;rounded=1;absoluteArcSize=1;arcSize=2;" vertex="1" parent="2">
                    <mxGeometry x="690" y="10" width="170" height="60" as="geometry"/>
                </mxCell>
                <mxCell id="432" value="&lt;font style=&quot;border-color: var(--border-color);&quot; color=&quot;#000000&quot;&gt;Grafana Auto Conf&lt;/font&gt;&lt;br style=&quot;border-color: var(--border-color);&quot;&gt;Cloud Run" style="editableCssRules=.*;html=1;fontColor=#999999;shape=image;verticalLabelPosition=middle;labelBackgroundColor=#ffffff;verticalAlign=middle;labelPosition=right;align=left;spacingLeft=20;part=1;points=[];imageAspect=0;image=data:image/svg+xml,PHN2ZyB4bWxucz0iaHR0cDovL3d3dy53My5vcmcvMjAwMC9zdmciIHhtbG5zOnY9Imh0dHBzOi8vdmVjdGEuaW8vbmFubyIgd2lkdGg9IjM2NS40NjQ5OTY3NzA0MjQ5MyIgaGVpZ2h0PSIzNzkuMjIyOTk0NDYzNTc3OTUiIHZpZXdCb3g9IjAgMCA5Ni42OTU5OTkxNDU1MDc4MSAxMDAuMzM1OTk4NTM1MTU2MjUiPiYjeGE7PHN0eWxlIHR5cGU9InRleHQvY3NzIj4mI3hhOwkuc3Qwe2ZpbGw6IzQyODVmNDt9JiN4YTsJLnN0MXtmaWxsOiNhZWNiZmE7fSYjeGE7PC9zdHlsZT4mI3hhOwk8cGF0aCBjbGFzcz0ic3QwIiBkPSJNMjkuNzk0IDEwMC4zMzZMNDYuOTIgNTAuMTY4aDQ5Ljc3NnpNMCA5OS42NzFsMTIuOTc2LTQ5LjUwMkgyOS4yMkwxNi44OTcgOTIuMDU0eiIvPiYjeGE7CTxwYXRoIGNsYXNzPSJzdDEiIGQ9Ik0yOS43OTQgMEw0Ni45MiA1MC4xNjhoNDkuNzc2ek0wIC42NjZsMTIuOTc2IDQ5LjUwMkgyOS4yMkwxNi44OTcgOC4yODN6Ii8+JiN4YTs8L3N2Zz4=;" vertex="1" parent="431">
                    <mxGeometry width="30" height="30" relative="1" as="geometry">
                        <mxPoint x="15" y="15" as="offset"/>
                    </mxGeometry>
                </mxCell>
                <mxCell id="433" value="on user create" style="edgeStyle=orthogonalEdgeStyle;fontSize=12;html=1;endArrow=blockThin;endFill=1;rounded=0;strokeWidth=2;endSize=4;startSize=4;dashed=0;strokeColor=#4284F3;exitX=1;exitY=0.25;exitDx=0;exitDy=0;entryX=-0.002;entryY=0.178;entryDx=0;entryDy=0;startArrow=blockThin;startFill=1;entryPerimeter=0;" edge="1" parent="2" source="421" target="431">
                    <mxGeometry x="0.3831" y="-12" width="100" relative="1" as="geometry">
                        <mxPoint x="908.5" y="274" as="sourcePoint"/>
                        <mxPoint x="1078.5" y="614" as="targetPoint"/>
                        <Array as="points">
                            <mxPoint x="650" y="99"/>
                            <mxPoint x="650" y="20"/>
                            <mxPoint x="690" y="20"/>
                        </Array>
                        <mxPoint x="-11" y="-12" as="offset"/>
                    </mxGeometry>
                </mxCell>
                <mxCell id="482" value="" style="edgeStyle=orthogonalEdgeStyle;fontSize=12;html=1;endArrow=blockThin;endFill=1;rounded=0;strokeWidth=2;endSize=4;startSize=4;dashed=0;strokeColor=#4284F3;entryX=0.5;entryY=0;entryDx=0;entryDy=0;startArrow=blockThin;startFill=1;" edge="1" parent="2" target="l2d_GAVntrcuHxAyZamE-516">
                    <mxGeometry width="100" relative="1" as="geometry">
                        <mxPoint x="767" y="70" as="sourcePoint"/>
                        <mxPoint x="808.5" y="448" as="targetPoint"/>
                        <Array as="points">
                            <mxPoint x="767" y="114"/>
                            <mxPoint x="808" y="114"/>
                        </Array>
                    </mxGeometry>
                </mxCell>
                <mxCell id="340" value="Web Event-admin&lt;br&gt;Console" style="rounded=1;absoluteArcSize=1;arcSize=2;html=1;strokeColor=none;gradientColor=none;shadow=0;dashed=0;fontSize=12;fontColor=#9E9E9E;align=left;verticalAlign=top;spacing=10;spacingTop=-4;fillColor=#EFEBE9;" parent="1" vertex="1">
                    <mxGeometry x="110" y="165" width="110.5" height="135" as="geometry"/>
                </mxCell>
                <mxCell id="338" value="" style="strokeColor=#dddddd;fillColor=#ffffff;shadow=1;strokeWidth=1;rounded=1;absoluteArcSize=1;arcSize=2;labelPosition=center;verticalLabelPosition=middle;align=center;verticalAlign=bottom;spacingLeft=0;fontColor=#999999;fontSize=12;whiteSpace=wrap;spacingBottom=2;html=1;" parent="1" vertex="1">
                    <mxGeometry x="130.5" y="215" width="70" height="70" as="geometry"/>
                </mxCell>
                <mxCell id="339" value="" style="dashed=0;connectable=0;html=1;fillColor=#757575;strokeColor=none;shape=mxgraph.gcp2.application;part=1;" parent="338" vertex="1">
                    <mxGeometry x="0.5" width="50" height="40" relative="1" as="geometry">
                        <mxPoint x="-25" y="15" as="offset"/>
                    </mxGeometry>
                </mxCell>
                <mxCell id="401" value="" style="edgeStyle=orthogonalEdgeStyle;rounded=0;html=1;dashed=0;labelBackgroundColor=none;startArrow=none;startFill=0;startSize=4;endArrow=blockThin;endFill=1;endSize=4;strokeColor=#4284F3;strokeWidth=2;fontSize=12;entryX=0;entryY=0.5;entryDx=0;entryDy=0;" parent="1" source="356" target="415" edge="1">
                    <mxGeometry relative="1" as="geometry">
                        <Array as="points">
                            <mxPoint x="250" y="468"/>
                            <mxPoint x="250" y="340"/>
                        </Array>
                    </mxGeometry>
                </mxCell>
                <mxCell id="356" value="Event participants&lt;br&gt;Moblie App" style="rounded=1;absoluteArcSize=1;arcSize=2;html=1;strokeColor=none;gradientColor=none;shadow=0;dashed=0;fontSize=12;fontColor=#9E9E9E;align=left;verticalAlign=top;spacing=10;spacingTop=-4;fillColor=#EFEBE9;" parent="1" vertex="1">
                    <mxGeometry x="110.5" y="403.5" width="110" height="130" as="geometry"/>
                </mxCell>
                <mxCell id="357" value="" style="strokeColor=#dddddd;fillColor=#ffffff;shadow=1;strokeWidth=1;rounded=1;absoluteArcSize=1;arcSize=2;labelPosition=center;verticalLabelPosition=middle;align=center;verticalAlign=bottom;spacingLeft=0;fontColor=#999999;fontSize=12;whiteSpace=wrap;spacingBottom=2;html=1;" parent="1" vertex="1">
                    <mxGeometry x="130.5" y="452.5" width="70" height="69" as="geometry"/>
                </mxCell>
                <mxCell id="l2d_GAVntrcuHxAyZamE-419" value="" style="dashed=0;html=1;fillColor=#757575;strokeColor=none;shape=mxgraph.gcp2.phone;part=1;" parent="1" vertex="1">
                    <mxGeometry x="149.5" y="462" width="32" height="50" as="geometry"/>
                </mxCell>
                <mxCell id="l2d_GAVntrcuHxAyZamE-491" value="Push 通知" style="edgeStyle=orthogonalEdgeStyle;fontSize=12;html=1;endArrow=blockThin;endFill=1;rounded=0;strokeWidth=2;endSize=4;startSize=4;dashed=1;dashPattern=1 3;strokeColor=#4284F3;exitX=0;exitY=0.5;exitDx=0;exitDy=0;entryX=1;entryY=0.5;entryDx=0;entryDy=0;" parent="1" source="l2d_GAVntrcuHxAyZamE-486" target="356" edge="1">
                    <mxGeometry width="100" relative="1" as="geometry">
                        <mxPoint x="250" y="500" as="sourcePoint"/>
                        <mxPoint x="350" y="500" as="targetPoint"/>
                    </mxGeometry>
                </mxCell>
                <mxCell id="l2d_GAVntrcuHxAyZamE-510" value="" style="edgeStyle=orthogonalEdgeStyle;fontSize=12;html=1;endArrow=blockThin;endFill=1;rounded=0;strokeWidth=2;endSize=4;startSize=4;dashed=0;strokeColor=#9E9E9E;exitX=0.5;exitY=1;exitDx=0;exitDy=0;entryX=0;entryY=0.5;entryDx=0;entryDy=0;" parent="1" source="356" target="l2d_GAVntrcuHxAyZamE-508" edge="1">
                    <mxGeometry width="100" relative="1" as="geometry">
                        <mxPoint x="370" y="550" as="sourcePoint"/>
                        <mxPoint x="470" y="550" as="targetPoint"/>
                    </mxGeometry>
                </mxCell>
            </root>
        </mxGraphModel>
    </diagram>
</mxfile>
